<?xml version="1.0" encoding="UTF-8" standalone="no"?>
<!DOCTYPE svg PUBLIC "-//W3C//DTD SVG 1.1//EN" "http://www.w3.org/Graphics/SVG/1.1/DTD/svg11.dtd">
<!-- Generated by Microsoft Visio, SVG Export nfv-l2+3.svg nfv-l3 -->
<svg xmlns="http://www.w3.org/2000/svg" xmlns:xlink="http://www.w3.org/1999/xlink" xmlns:ev="http://www.w3.org/2001/xml-events"
		xmlns:v="http://schemas.microsoft.com/visio/2003/SVGExtensions/" width="10.2894in" height="4.92937in"
		viewBox="0 0 740.835 354.914" xml:space="preserve" color-interpolation-filters="sRGB" class="st21">
	<v:documentProperties v:langID="1033" v:metric="true" v:viewMarkup="false">
		<v:userDefs>
			<v:ud v:nameU="msvNoAutoConnect" v:val="VT0(1):26"/>
		</v:userDefs>
	</v:documentProperties>

	<style type="text/css">
	<![CDATA[
		.st1 {fill:#d7e3bf;stroke:#000000;stroke-linecap:round;stroke-linejoin:round;stroke-width:0.24}
		.st2 {fill:#000000;font-family:Calibri;font-size:1.00001em}
		.st3 {font-size:1em}
		.st4 {stroke:#7030a0;stroke-linecap:round;stroke-linejoin:round;stroke-width:0.75}
		.st5 {stroke:#0070c0;stroke-linecap:round;stroke-linejoin:round;stroke-width:0.75}
		.st6 {stroke:#000000;stroke-linecap:round;stroke-linejoin:round;stroke-width:0.75}
		.st7 {fill:#d9958f;stroke:#612621;stroke-linecap:round;stroke-linejoin:round;stroke-width:0.24}
		.st8 {fill:#f9c499;stroke:#9c4a09;stroke-linecap:round;stroke-linejoin:round;stroke-width:0.24}
		.st9 {fill:#000000;font-family:Calibri;font-size:0.666664em}
		.st10 {fill:#d7e3bf;stroke:#000000;stroke-linecap:round;stroke-linejoin:round;stroke-width:0.75}
		.st11 {fill:none;stroke:none;stroke-linecap:round;stroke-linejoin:round;stroke-width:0.75}
		.st12 {fill:#31859b;font-family:Calibri;font-size:1.00001em;font-weight:bold}
		.st13 {fill:#7030a0;font-family:Calibri;font-size:1.00001em;font-weight:bold}
		.st14 {fill:#ffffff}
		.st15 {stroke:#000000;stroke-linecap:round;stroke-linejoin:round;stroke-width:0.24}
		.st16 {fill:#000000;font-family:Calibri;font-size:0.833336em}
		.st17 {fill:#000000;font-family:Calibri;font-size:1.00001em;font-weight:bold}
		.st18 {fill:#d9958f;font-size:1em}
		.st19 {fill:#c4d6a0;font-size:1em}
		.st20 {fill:#f9c499;font-size:1em}
		.st21 {fill:none;fill-rule:evenodd;font-size:12px;overflow:visible;stroke-linecap:square;stroke-miterlimit:3}
	]]>
	</style>

	<g v:mID="24" v:index="11" v:groupContext="foregroundPage">
		<title>nfv-l2/3</title>
		<v:pageProperties v:drawingScale="0.0393701" v:pageScale="0.0393701" v:drawingUnits="24" v:shadowOffsetX="8.50394"
				v:shadowOffsetY="-8.50394"/>
		<v:layer v:name="Connector" v:index="0"/>
		<g id="shape1-1" v:mID="1" v:groupContext="shape" transform="translate(18.12,-216.372)">
			<title>Box.1</title>
			<desc>OVS br0</desc>
			<v:userDefs>
				<v:ud v:nameU="visVersion" v:val="VT0(15):26"/>
			</v:userDefs>
			<v:textBlock v:margins="rect(4,4,4,4)" v:tabSpace="42.5197" v:verticalAlign="0"/>
			<v:textRect cx="161.019" cy="312.395" width="322.04" height="85.0394"/>
			<rect x="0" y="269.875" width="322.037" height="85.0394" class="st1"/>
			<text x="150.88" y="284.68" class="st2" v:langID="1033"><v:paragraph v:horizAlign="1"/><v:tabList/>OVS<v:newlineChar/><tspan
						x="152.73" dy="1.2em" class="st3">br</tspan>0</text>		</g>
		<g id="shape30-5" v:mID="30" v:groupContext="shape" v:layerMember="0" transform="translate(321.732,-116.128)">
			<title>Dynamic connector.30</title>
			<path d="M7.09 354.91 L7.09 304.79 L7.09 254.67" class="st4"/>
		</g>
		<g id="shape32-8" v:mID="32" v:groupContext="shape" v:layerMember="0" transform="translate(403.937,-225.987)">
			<title>Dynamic connector.32</title>
			<path d="M0 354.91 L-10.63 354.91 L-10.63 322.01 L-63.78 322.01" class="st5"/>
		</g>
		<g id="shape33-11" v:mID="33" v:groupContext="shape" v:layerMember="0" transform="translate(396.85,-308.815)">
			<title>Dynamic connector.33</title>
			<path d="M0 354.91 L-10.63 354.91 L-10.63 375.35 L-56.69 375.35" class="st6"/>
		</g>
		<g id="group38-14" transform="translate(20.0663,-61.9062)" v:mID="38" v:groupContext="group">
			<title>Sheet.38</title>
			<g id="shape3-15" v:mID="3" v:groupContext="shape">
				<title>Box</title>
				<desc>host4 namespace</desc>
				<v:userDefs>
					<v:ud v:nameU="visVersion" v:val="VT0(15):26"/>
				</v:userDefs>
				<v:textBlock v:margins="rect(4,4,4,4)" v:tabSpace="42.5197" v:verticalAlign="2"/>
				<v:textRect cx="36.0298" cy="327.985" width="72.06" height="53.8583"/>
				<rect x="0" y="301.056" width="72.0597" height="53.8583" class="st7"/>
				<text x="4" y="332.91" class="st2" v:langID="1033"><v:paragraph/><v:tabList/>host4<v:newlineChar/><tspan x="4"
							dy="1.2em" class="st3">namespace</tspan></text>			</g>
		</g>
		<g id="group39-19" transform="translate(111.969,-61.9062)" v:mID="39" v:groupContext="group">
			<title>Sheet.39</title>
			<g id="shape9-20" v:mID="9" v:groupContext="shape">
				<title>Box.9</title>
				<desc>host5 namespace</desc>
				<v:userDefs>
					<v:ud v:nameU="visVersion" v:val="VT0(15):26"/>
				</v:userDefs>
				<v:textBlock v:margins="rect(4,4,4,4)" v:tabSpace="42.5197" v:verticalAlign="2"/>
				<v:textRect cx="36.0298" cy="327.985" width="72.06" height="53.8583"/>
				<rect x="0" y="301.056" width="72.0597" height="53.8583" class="st7"/>
				<text x="4" y="332.91" class="st2" v:langID="1033"><v:paragraph/><v:tabList/>host5<v:newlineChar/><tspan x="4"
							dy="1.2em" class="st3">namespace</tspan></text>			</g>
		</g>
		<g id="group40-24" transform="translate(203.134,-61.9062)" v:mID="40" v:groupContext="group">
			<title>Sheet.40</title>
			<g id="shape12-25" v:mID="12" v:groupContext="shape">
				<title>Box.12</title>
				<desc>host6 namespace</desc>
				<v:userDefs>
					<v:ud v:nameU="visVersion" v:val="VT0(15):26"/>
				</v:userDefs>
				<v:textBlock v:margins="rect(4,4,4,4)" v:tabSpace="42.5197" v:verticalAlign="2"/>
				<v:textRect cx="36.0298" cy="327.985" width="72.06" height="53.8583"/>
				<rect x="0" y="301.056" width="72.0597" height="53.8583" class="st7"/>
				<text x="4" y="332.91" class="st2" v:langID="1033"><v:paragraph/><v:tabList/>host6<v:newlineChar/><tspan x="4"
							dy="1.2em" class="st3">namespace</tspan></text>			</g>
		</g>
		<g id="group41-29" transform="translate(292.789,-62.2702)" v:mID="41" v:groupContext="group">
			<title>Sheet.41</title>
			<g id="shape15-30" v:mID="15" v:groupContext="shape">
				<title>Box.15</title>
				<desc>host7 namespace</desc>
				<v:userDefs>
					<v:ud v:nameU="visVersion" v:val="VT0(15):26"/>
				</v:userDefs>
				<v:textBlock v:margins="rect(4,4,4,4)" v:tabSpace="42.5197" v:verticalAlign="2"/>
				<v:textRect cx="36.0298" cy="327.985" width="72.06" height="53.8583"/>
				<rect x="0" y="301.056" width="72.0597" height="53.8583" class="st7"/>
				<text x="4" y="332.91" class="st2" v:langID="1033"><v:paragraph/><v:tabList/>host7<v:newlineChar/><tspan x="4"
							dy="1.2em" class="st3">namespace</tspan></text>			</g>
		</g>
		<g id="shape42-34" v:mID="42" v:groupContext="shape" v:layerMember="0" transform="translate(245.724,-115.765)">
			<title>Dynamic connector.42</title>
			<path d="M-6.56 354.91 L-7.61 254.31" class="st4"/>
		</g>
		<g id="shape43-37" v:mID="43" v:groupContext="shape" v:layerMember="0" transform="translate(145.984,-115.765)">
			<title>Dynamic connector.43</title>
			<path d="M7.09 354.91 L7.09 254.31" class="st5"/>
		</g>
		<g id="shape44-40" v:mID="44" v:groupContext="shape" v:layerMember="0" transform="translate(60.6465,-115.765)">
			<title>Dynamic connector.44</title>
			<path d="M-4.55 354.91 L-4.55 254.31 L-9.62 254.31" class="st5"/>
		</g>
		<g id="group45-43" transform="translate(407.848,-62.2702)" v:mID="45" v:groupContext="group">
			<title>Sheet.45</title>
		</g>
		<g id="group52-44" transform="translate(403.937,-140.164)" v:mID="52" v:groupContext="group">
			<title>Sheet.52</title>
			<g id="shape22-45" v:mID="22" v:groupContext="shape" transform="translate(19.4587,0)">
				<title>Box</title>
				<desc>host2 namespace</desc>
				<v:userDefs>
					<v:ud v:nameU="visVersion" v:val="VT0(15):26"/>
				</v:userDefs>
				<v:textBlock v:margins="rect(4,4,4,4)" v:tabSpace="42.5197" v:verticalAlign="2"/>
				<v:textRect cx="54.0502" cy="300.902" width="108.11" height="108.025"/>
				<rect x="0" y="246.889" width="108.1" height="108.025" class="st7"/>
				<text x="76.67" y="332.91" class="st2" v:langID="1033"><v:paragraph v:horizAlign="2"/><v:tabList/>host2<v:newlineChar/><tspan
							x="48.7" dy="1.2em" class="st3">namespace</tspan></text>			</g>
			<g id="shape23-49" v:mID="23" v:groupContext="shape" transform="translate(3.59712E-14,-72.2463)">
				<title>Box.23</title>
				<desc>veth0.200 192.168.2.2</desc>
				<v:userDefs>
					<v:ud v:nameU="visVersion" v:val="VT0(15):26"/>
				</v:userDefs>
				<v:textBlock v:margins="rect(4,4,4,4)" v:tabSpace="42.5197"/>
				<v:textRect cx="25.0707" cy="341.338" width="50.15" height="27.1529"/>
				<rect x="0" y="327.761" width="50.1415" height="27.1529" class="st8"/>
				<text x="13.43" y="338.94" class="st9" v:langID="1033"><v:paragraph v:horizAlign="2"/><v:tabList/>veth0.200<v:newlineChar/><tspan
							x="7.64" dy="1.2em" class="st3">192</tspan>.168.2.2</text>			</g>
			<g id="shape51-53" v:mID="51" v:groupContext="shape" transform="translate(1.79856E-13,-37.4472)">
				<title>Box.4</title>
				<desc>veth0.300 192.168.3.2</desc>
				<v:userDefs>
					<v:ud v:nameU="visVersion" v:val="VT0(15):26"/>
				</v:userDefs>
				<v:textBlock v:margins="rect(4,4,4,4)" v:tabSpace="42.5197"/>
				<v:textRect cx="25.0707" cy="341.338" width="50.15" height="27.1529"/>
				<rect x="0" y="327.761" width="50.1415" height="27.1529" class="st8"/>
				<text x="13.43" y="338.94" class="st9" v:langID="1033"><v:paragraph v:horizAlign="2"/><v:tabList/>veth0.300<v:newlineChar/><tspan
							x="7.64" dy="1.2em" class="st3">192</tspan>.168.3.2</text>			</g>
		</g>
		<g id="group53-57" transform="translate(408.118,-264.587)" v:mID="53" v:groupContext="group">
			<title>Sheet.53</title>
			<g id="shape18-58" v:mID="18" v:groupContext="shape" transform="translate(17.3486,0)">
				<title>Box</title>
				<desc>host1 namespace</desc>
				<v:userDefs>
					<v:ud v:nameU="visVersion" v:val="VT0(15):26"/>
				</v:userDefs>
				<v:textBlock v:margins="rect(4,4,4,4)" v:tabSpace="42.5197" v:verticalAlign="2"/>
				<v:textRect cx="48.0542" cy="318.998" width="96.11" height="71.8326"/>
				<rect x="0" y="283.082" width="96.1084" height="71.8326" class="st7"/>
				<text x="64.68" y="332.91" class="st2" v:langID="1033"><v:paragraph v:horizAlign="2"/><v:tabList/>host1<v:newlineChar/><tspan
							x="36.71" dy="1.2em" class="st3">namespace</tspan></text>			</g>
			<g id="shape19-62" v:mID="19" v:groupContext="shape" transform="translate(-11.2674,-31.1892)">
				<title>Box.4</title>
				<desc>veth0 192.168.0.1</desc>
				<v:userDefs>
					<v:ud v:nameU="visVersion" v:val="VT0(15):26"/>
				</v:userDefs>
				<v:textBlock v:margins="rect(4,4,4,4)" v:tabSpace="42.5197"/>
				<v:textRect cx="30.3605" cy="341.875" width="60.73" height="26.0787"/>
				<rect x="0" y="328.836" width="60.7211" height="26.0787" class="st8"/>
				<text x="38.19" y="339.47" class="st9" v:langID="1033"><v:paragraph v:horizAlign="2"/><v:tabList/>veth0<v:newlineChar/><tspan
							x="18.22" dy="1.2em" class="st3">192</tspan>.168.0.1</text>			</g>
		</g>
		<g id="group54-66" transform="translate(402.52,-18.12)" v:mID="54" v:groupContext="group">
			<title>Sheet.54</title>
			<g id="shape55-67" v:mID="55" v:groupContext="shape" transform="translate(17.3486,0)">
				<title>Box</title>
				<desc>host3 namespace</desc>
				<v:userDefs>
					<v:ud v:nameU="visVersion" v:val="VT0(15):26"/>
				</v:userDefs>
				<v:textBlock v:margins="rect(4,4,4,4)" v:tabSpace="42.5197" v:verticalAlign="2"/>
				<v:textRect cx="48.189" cy="300.902" width="96.38" height="108.025"/>
				<rect x="0" y="246.889" width="96.378" height="108.025" class="st7"/>
				<text x="64.95" y="332.91" class="st2" v:langID="1033"><v:paragraph v:horizAlign="2"/><v:tabList/>host3<v:newlineChar/><tspan
							x="36.98" dy="1.2em" class="st3">namespace</tspan></text>			</g>
			<g id="shape56-71" v:mID="56" v:groupContext="shape" transform="translate(2.79776E-14,-72.2463)">
				<title>Box.23</title>
				<desc>veth0.200 192.168.2.3</desc>
				<v:userDefs>
					<v:ud v:nameU="visVersion" v:val="VT0(15):26"/>
				</v:userDefs>
				<v:textBlock v:margins="rect(4,4,4,4)" v:tabSpace="42.5197"/>
				<v:textRect cx="25.0164" cy="341.338" width="50.04" height="27.1529"/>
				<rect x="0" y="327.761" width="50.0327" height="27.1529" class="st8"/>
				<text x="13.32" y="338.94" class="st9" v:langID="1033"><v:paragraph v:horizAlign="2"/><v:tabList/>veth0.200<v:newlineChar/><tspan
							x="7.54" dy="1.2em" class="st3">192</tspan>.168.2.3</text>			</g>
			<g id="shape59-75" v:mID="59" v:groupContext="shape" transform="translate(1.55875E-13,-37.4472)">
				<title>Box.4</title>
				<desc>veth0.300 192.168.3.3</desc>
				<v:userDefs>
					<v:ud v:nameU="visVersion" v:val="VT0(15):26"/>
				</v:userDefs>
				<v:textBlock v:margins="rect(4,4,4,4)" v:tabSpace="42.5197"/>
				<v:textRect cx="25.0164" cy="341.338" width="50.04" height="27.1529"/>
				<rect x="0" y="327.761" width="50.0327" height="27.1529" class="st8"/>
				<text x="13.32" y="338.94" class="st9" v:langID="1033"><v:paragraph v:horizAlign="2"/><v:tabList/>veth0.300<v:newlineChar/><tspan
							x="7.54" dy="1.2em" class="st3">192</tspan>.168.3.3</text>			</g>
		</g>
		<g id="shape60-79" v:mID="60" v:groupContext="shape" v:layerMember="0" transform="translate(403.937,-191.188)">
			<title>Dynamic connector.60</title>
			<path d="M0 354.91 L-14.46 354.91 L-14.46 298.79 L-63.78 298.79" class="st4"/>
		</g>
		<g id="shape61-82" v:mID="61" v:groupContext="shape" v:layerMember="0" transform="translate(340.157,-231.684)">
			<title>Dynamic connector</title>
			<path d="M0 354.91 L39.69 354.91 L39.69 482.66 L62.36 482.66" class="st5"/>
		</g>
		<g id="shape63-85" v:mID="63" v:groupContext="shape" v:layerMember="0" transform="translate(340.157,-225.204)">
			<title>Dynamic connector.63</title>
			<path d="M0 354.91 L34.02 354.91 L34.02 510.97 L62.36 510.97" class="st4"/>
		</g>
		<g id="shape68-88" v:mID="68" v:groupContext="shape" transform="translate(470.551,-302.74)">
			<title>Sheet.68</title>
			<desc>Bro</desc>
			<v:textBlock v:margins="rect(4,4,4,4)" v:tabSpace="42.5197"/>
			<v:textRect cx="17.0079" cy="341.875" width="34.02" height="26.0787"/>
			<rect x="0" y="328.836" width="34.0157" height="26.0787" class="st10"/>
			<text x="8.49" y="345.48" class="st2" v:langID="1033"><v:paragraph v:horizAlign="1"/><v:tabList/>Bro</text>		</g>
		<g id="shape69-91" v:mID="69" v:groupContext="shape" transform="translate(467.717,-213.865)">
			<title>Sheet.69</title>
			<desc>DNSMASQ</desc>
			<v:textBlock v:margins="rect(4,4,4,4)" v:tabSpace="42.5197"/>
			<v:textRect cx="30.3605" cy="341.875" width="60.73" height="26.0787"/>
			<rect x="0" y="328.836" width="60.7211" height="26.0787" class="st10"/>
			<text x="4.64" y="345.48" class="st2" v:langID="1033"><v:paragraph v:horizAlign="1"/><v:tabList/>DNSMASQ</text>		</g>
		<g id="shape70-94" v:mID="70" v:groupContext="shape" transform="translate(467.717,-179.282)">
			<title>Sheet.70</title>
			<desc>DNSMASQ</desc>
			<v:textBlock v:margins="rect(4,4,4,4)" v:tabSpace="42.5197"/>
			<v:textRect cx="30.3605" cy="341.875" width="60.73" height="26.0787"/>
			<rect x="0" y="328.836" width="60.7211" height="26.0787" class="st10"/>
			<text x="4.64" y="345.48" class="st2" v:langID="1033"><v:paragraph v:horizAlign="1"/><v:tabList/>DNSMASQ</text>		</g>
		<g id="shape71-97" v:mID="71" v:groupContext="shape" v:layerMember="0" transform="translate(453.811,-218.9)">
			<title>Dynamic connector.71</title>
			<path d="M0.27 347.83 L13.91 347.83" class="st6"/>
		</g>
		<g id="shape72-100" v:mID="72" v:groupContext="shape" v:layerMember="0" transform="translate(453.811,-184.101)">
			<title>Dynamic connector.72</title>
			<path d="M0.27 347.83 L13.91 347.83" class="st6"/>
		</g>
		<g id="shape74-103" v:mID="74" v:groupContext="shape" v:layerMember="0" transform="translate(456.975,-301.729)">
			<title>Dynamic connector.74</title>
			<path d="M0.6 347.83 L13.58 347.83" class="st6"/>
		</g>
		<g id="shape75-106" v:mID="75" v:groupContext="shape" transform="translate(55.2756,-155.03)">
			<title>Sheet.75</title>
			<desc>vlan200 VID: 200</desc>
			<v:textBlock v:margins="rect(4,4,4,4)" v:tabSpace="42.5197"/>
			<v:textRect cx="49.6063" cy="329.749" width="99.22" height="50.331"/>
			<rect x="0" y="304.583" width="99.2126" height="50.331" class="st11"/>
			<text x="29.99" y="326.15" class="st12" v:langID="1033"><v:paragraph v:horizAlign="1"/><v:tabList/>vlan200<v:newlineChar/><tspan
						x="28.54" dy="1.2em" class="st3">VID</tspan>: 200</text>		</g>
		<g id="shape76-110" v:mID="76" v:groupContext="shape" transform="translate(233.858,-155.906)">
			<title>Sheet.76</title>
			<desc>vlan300 VID: 300</desc>
			<v:textBlock v:margins="rect(4,4,4,4)" v:tabSpace="42.5197"/>
			<v:textRect cx="49.6063" cy="329.749" width="99.22" height="50.331"/>
			<rect x="0" y="304.583" width="99.2126" height="50.331" class="st11"/>
			<text x="29.99" y="326.15" class="st13" v:langID="1033"><v:paragraph v:horizAlign="1"/><v:tabList/>vlan300<v:newlineChar/><tspan
						x="28.54" dy="1.2em" class="st3">VID</tspan>: 300</text>		</g>
		<g id="shape77-114" v:mID="77" v:groupContext="shape" transform="translate(557.978,-31.3303)">
			<title>Cloud</title>
			<desc>Internet</desc>
			<v:userDefs>
				<v:ud v:nameU="visVersion" v:prompt="" v:val="VT0(15):26"/>
			</v:userDefs>
			<v:textBlock v:margins="rect(4,4,4,4)" v:tabSpace="42.5197"/>
			<v:textRect cx="56.6929" cy="312.395" width="113.39" height="85.0394"/>
			<path d="M5.58 320.11 A8.95424 11.2986 0 0 1 9.88 298.41 A18.1582 22.9124 0 0 1 36.23 280.09 A20.8506 26.3097 0 0 1 58.8
						 276.01 A13.0752 16.4985 0 0 1 78.16 274.65 A14.8864 18.7839 0 0 1 101.82 281.44 A10.6442 13.4306 0 0 1 110.42
						 300.44 A13.1842 16.6355 0 0 1 99.67 327.57 A16.6329 20.987 0 0 1 76.01 341.14 A19.6116 24.7455 0 0 1 43.76
						 346.57 A24.8602 31.3681 0 0 1 15.79 341.14 A9.80787 12.3758 0 0 1 5.58 320.11 Z" class="st14"/>
			<path d="M5.58 320.11 A8.95424 11.2986 0 0 1 9.88 298.41 A18.1582 22.9124 0 0 1 36.23 280.09 A20.8506 26.3097 0 0 1 58.8
						 276.01 A13.0752 16.4985 0 0 1 78.16 274.65 A14.8864 18.7839 0 0 1 101.82 281.44 A10.6442 13.4306 0 0 1 110.42
						 300.44 A13.1842 16.6355 0 0 1 99.67 327.57 A16.6329 20.987 0 0 1 76.01 341.14 A19.6116 24.7455 0 0 1 43.76
						 346.57 A24.8602 31.3681 0 0 1 15.79 341.14 A9.80787 12.3758 0 0 1 5.58 320.11" class="st15"/>
			<path d="M11.49 320.79 A8.9295 11.2674 0 0 1 5.58 320.11" class="st15"/>
			<path d="M42.13 343.18 A8.96837 11.3165 -180 0 0 43.76 346.57" class="st15"/>
			<path d="M76.82 337.07 A7.23966 9.13514 0 0 1 76.01 341.14" class="st15"/>
			<path d="M93.21 316.71 A7.59674 9.58572 0 0 1 99.67 327.57" class="st15"/>
			<path d="M107.19 304.51 A6.93548 8.75133 -180 0 0 110.42 300.44" class="st15"/>
			<path d="M39.45 282.8 A10.6952 13.4949 -180 0 0 36.23 280.09" class="st15"/>
			<text x="40.11" y="315.39" class="st16" v:langID="1033"><v:paragraph v:horizAlign="1"/><v:tabList/>Internet</text>		</g>
		<g id="shape78-124" v:mID="78" v:groupContext="shape" transform="translate(492.014,-62.959)">
			<title>Box.23</title>
			<desc>to_def</desc>
			<v:userDefs>
				<v:ud v:nameU="visVersion" v:val="VT0(15):26"/>
			</v:userDefs>
			<v:textBlock v:margins="rect(4,4,4,4)" v:tabSpace="42.5197"/>
			<v:textRect cx="22.3521" cy="341.338" width="44.71" height="27.1529"/>
			<rect x="0" y="327.761" width="44.7041" height="27.1529" class="st8"/>
			<text x="11.6" y="343.74" class="st9" v:langID="1033"><v:paragraph v:horizAlign="1"/><v:tabList/>to_def</text>		</g>
		<g id="shape79-127" v:mID="79" v:groupContext="shape" v:layerMember="0" transform="translate(536.718,-83.6067)">
			<title>Dynamic connector.79</title>
			<path d="M0 361.99 L10.63 361.99 L10.63 362.02 L21.26 362.02" class="st6"/>
		</g>
		<g id="shape80-130" v:mID="80" v:groupContext="shape" v:layerMember="0" transform="translate(452.552,-103.943)">
			<title>Dynamic connector.80</title>
			<path d="M0 354.91 L39.46 382.32" class="st6"/>
		</g>
		<g id="shape81-133" v:mID="81" v:groupContext="shape" v:layerMember="0" transform="translate(452.552,-65.7529)">
			<title>Dynamic connector.81</title>
			<path d="M0 351.52 L39.46 344.13" class="st6"/>
		</g>
		<g id="shape82-136" v:mID="82" v:groupContext="shape" transform="translate(538.114,-240.945)">
			<title>Sheet.82</title>
			<desc>Legend (Box Shade): Namespace Application Interface Link Colo...</desc>
			<v:textBlock v:margins="rect(4,4,4,4)" v:tabSpace="42.5197" v:verticalAlign="0"/>
			<v:textRect cx="71.1005" cy="307.117" width="142.21" height="95.5944"/>
			<rect x="0" y="259.32" width="142.201" height="95.5944" class="st11"/>
			<text x="4" y="274.12" class="st17" v:langID="1033"><v:paragraph/><v:tabList/>Legend (Box Shade):<v:newlineChar/><tspan
						x="4" dy="1.2em" class="st18">Namespace<v:newlineChar/></tspan><tspan x="4" dy="1.2em" class="st19">Application<v:newlineChar/></tspan><tspan
						x="4" dy="1.2em" class="st20">Interface<v:newlineChar/><v:newlineChar/></tspan><tspan x="4" dy="2.4em"
						class="st3">Link Colours </tspan>= same VLAN<v:newlineChar/></text>		</g>
	</g>
</svg>
